
<svg width="293" height="159" viewBox="0 0 293 159" fill="none" xmlns="http://www.w3.org/2000/svg">
<g clip-path="url(#clip0_60_75)">
<path d="M118.093 53.6344V120.032H124.259V132.407H111.607C110.657 132.373 109.745 132.028 109.009 131.425C108.274 130.822 107.757 129.995 107.537 129.07L106.754 125.205H106.306C105.525 126.587 104.49 127.809 103.254 128.806C100.514 131.061 97.2753 132.63 93.8072 133.384C91.9691 133.787 90.0932 133.994 88.2113 133.999C84.8197 134.021 81.4504 133.449 78.2558 132.31C75.1808 131.206 72.3974 129.416 70.1163 127.077C67.6591 124.502 65.7807 121.433 64.6069 118.074C63.2504 114.435 62.5721 110.141 62.5721 105.19C62.4971 100.813 63.2389 96.4615 64.7595 92.357C66.1012 88.8004 68.17 85.5627 70.8336 82.8506C73.4395 80.2489 76.5577 78.2172 79.9905 76.8842C83.6851 75.4634 87.6157 74.7557 91.574 74.7988C93.7726 74.7938 95.9695 74.9263 98.1517 75.1956C99.9799 75.4002 101.775 75.8361 103.493 76.4926V61.9252H96.6357V50.2266H114.69C115.594 50.2266 116.461 50.5856 117.1 51.2247C117.739 51.8638 118.098 52.7306 118.098 53.6344M91.5587 121.609C94.2358 121.657 96.8704 120.935 99.1487 119.528C100.231 118.859 101.171 117.982 101.914 116.949C102.657 115.916 103.188 114.746 103.478 113.506V89.651C102.191 88.7175 100.712 88.0817 99.1487 87.7894C97.2476 87.3715 95.3061 87.1651 93.3595 87.174C91.3471 87.1722 89.3492 87.5163 87.4534 88.1913C85.5355 88.8577 83.7955 89.9538 82.3662 91.3957C80.8229 93.0198 79.6481 94.9577 78.9222 97.0771C77.9916 99.829 77.5541 102.723 77.6301 105.627C77.6301 110.429 78.8289 114.293 81.2267 117.219C83.6244 120.146 87.0735 121.609 91.574 121.609" fill="white"/>
<path d="M50.2714 76.8776C48.4705 76.4673 46.5018 76.1112 44.3652 75.8094C42.2286 75.5076 39.9597 75.2635 37.5586 75.077C35.1642 74.8905 32.7665 74.7956 30.3653 74.7922C26.1405 74.7375 21.9374 75.405 17.9374 76.7657C14.3626 77.995 11.1 79.9915 8.37864 82.615C5.63813 85.3284 3.52648 88.61 2.19265 92.2282C0.665043 96.4474 -0.078033 100.91 8.57259e-05 105.397C-0.080751 109.599 0.546971 113.784 1.8569 117.777C2.93136 121.04 4.71763 124.023 7.0865 126.51C9.31556 128.786 12.0253 130.534 15.0174 131.627C18.2059 132.784 21.5763 133.357 24.9679 133.321C28.0526 133.371 31.1259 132.934 34.0739 132.024C36.6988 131.166 38.6862 129.833 40.036 128.026H40.4837V134.359C40.4837 138.407 39.2475 141.52 36.7752 143.697C34.3028 145.874 30.7045 146.963 25.9802 146.963C22.1547 146.963 18.9871 146.418 16.4774 145.33L15.7499 144.999L10.21 155.61C11.1461 156.006 12.1431 156.388 13.2165 156.754C15.3453 157.465 17.5257 158.011 19.7383 158.387C22.2461 158.808 24.7854 159.013 27.3283 159.002C31.0316 159.038 34.7222 158.564 38.2962 157.593C41.4516 156.747 44.3966 155.254 46.9444 153.209C49.4052 151.187 51.3685 148.627 52.6827 145.727C54.135 142.393 54.845 138.783 54.7633 135.147V78.1797C53.2935 77.6533 51.7914 77.2217 50.2663 76.8877M40.1429 113.972C39.3978 116.416 37.725 118.47 35.483 119.695C33.1229 120.988 30.4673 121.647 27.776 121.607C26.1049 121.622 24.4524 121.257 22.9432 120.539C21.3684 119.779 19.9793 118.684 18.8734 117.329C17.6091 115.773 16.6605 113.985 16.0806 112.065C14.6756 107.109 14.7339 101.852 16.2485 96.928C16.9371 94.8794 18.05 92.999 19.5144 91.4093C20.8525 89.9779 22.5078 88.8803 24.3472 88.2049C26.2399 87.5178 28.2399 87.1733 30.2534 87.1876C32.078 87.1956 33.8999 87.3265 35.7069 87.5793C37.2265 87.7458 38.7188 88.1047 40.1479 88.6474L40.1429 113.972Z" fill="white"/>
<path d="M158.282 120.001C149.675 120.001 147.904 117.519 147.818 100.571H147.884V53.6344C147.884 52.7306 147.525 51.8638 146.886 51.2247C146.246 50.5856 145.379 50.2266 144.475 50.2266H125.989V61.9252H133.279V99.1626C133.279 123.358 137.074 132.544 158.048 132.626H160.663V120.001H158.282Z" fill="white"/>
<path d="M178.941 102.222V102.945C178.941 105.249 180.665 106.154 183.173 106.154C185.681 106.154 186.821 104.969 186.821 103.245C186.821 101.897 186.124 101.246 184.704 100.783L181.062 99.6183C178.712 98.8502 177.944 97.7109 177.944 95.8035C177.944 93.6621 179.383 91.7344 182.522 91.7344C184.384 91.7344 185.869 92.4109 186.546 93.5299V92.004H187.752V96.8614H186.358V95.7831C186.358 93.9673 184.938 93.0161 182.797 93.0161C180.523 93.0161 179.546 94.1758 179.546 95.7831C179.546 97.0598 180.101 97.7821 181.728 98.3263L185.401 99.5369C187.701 100.305 188.515 101.281 188.515 103.28C188.515 105.864 186.378 107.421 183.428 107.421C181.393 107.421 179.597 106.983 178.712 105.539V107.166H177.501V102.258L178.941 102.222Z" fill="white"/>
<path d="M190.631 101.385C190.631 97.0562 192.33 95.3828 195.652 95.3828C198.974 95.3828 200.673 97.0104 200.673 101.385C200.673 105.759 198.999 107.407 195.652 107.407C192.305 107.407 190.631 105.759 190.631 101.385ZM199.162 101.385C199.162 97.6869 198.048 96.5679 195.677 96.5679C193.307 96.5679 192.167 97.6157 192.167 101.385C192.167 105.154 193.261 106.222 195.652 106.222C198.043 106.222 199.162 105.154 199.162 101.385Z" fill="white"/>
<path d="M202.367 107.133V105.994H204.015V91.9909H202.459V90.8516H205.481V105.994H207.129V107.133H202.367Z" fill="white"/>
<path d="M211.016 95.6219V103.572C211.016 105.576 211.829 106.156 213.432 106.156C216.082 106.156 217.334 104.294 217.334 101.578V96.7155H215.731V95.6016H218.784V105.322C218.784 105.784 218.901 105.973 219.318 105.973H220.437V107.112H218.667C217.924 107.112 217.436 106.786 217.436 105.764V104.482C216.81 106.202 215.345 107.387 213.02 107.387C211.163 107.387 209.556 106.878 209.556 103.689V96.7358H207.979V95.6219H211.016Z" fill="white"/>
<path d="M225.305 112.294V111.369C225.748 111.435 226.444 111.48 226.607 111.48C227.676 111.48 228.047 111.18 228.047 110.55C228.047 109.502 225.865 109.573 225.865 108.154C225.862 107.872 225.925 107.594 226.048 107.34C223.468 107.132 222.029 105.692 222.029 101.455C222.029 97.2183 223.611 95.3516 226.816 95.3516C228.952 95.3516 229.975 96.0484 230.301 96.7452V95.611H231.42V99.853H230.092V98.968C230.092 97.6201 229.532 96.6435 227.04 96.6435C224.644 96.6435 223.55 97.8744 223.55 101.46C223.55 105.458 224.878 106.18 226.989 106.18C229.1 106.18 230.224 105.275 230.224 103.129H231.537C231.537 106.13 229.863 107.386 227.029 107.432C226.965 107.604 226.932 107.787 226.933 107.971C226.933 109.085 229.395 108.988 229.395 110.667C229.395 112.015 228.444 112.503 226.851 112.503C226.32 112.494 225.791 112.44 225.269 112.34" fill="white"/>
<path d="M242.922 107.131C242.179 107.131 241.691 106.805 241.691 105.783V104.715C241.04 106.241 239.412 107.385 237.158 107.385C235.124 107.385 233.786 106.368 233.786 104.222C233.786 101.246 235.785 100.569 238.507 100.569H241.559V98.7791C241.559 97.4566 241.233 96.5716 238.746 96.5716C237.718 96.57 236.703 96.7922 235.77 97.2227V98.9418H234.589V96.3173C235.948 95.6983 237.421 95.3725 238.913 95.3611C241.864 95.3611 243.029 96.2918 243.029 98.7333V105.346C243.029 105.808 243.121 105.997 243.563 105.997H244.677V107.136L242.922 107.131ZM241.574 102.268V101.551H238.735C236.507 101.551 235.276 102.06 235.276 104.064C235.276 105.62 236.294 106.154 237.55 106.154C238.075 106.183 238.599 106.103 239.091 105.92C239.583 105.737 240.032 105.454 240.41 105.089C240.788 104.724 241.086 104.286 241.286 103.8C241.487 103.315 241.585 102.793 241.574 102.268ZM235.607 93.7792C235.607 91.6633 236.558 91.1953 237.372 91.1953C238.791 91.1953 239.346 92.6856 240.348 92.6856C240.974 92.6856 241.182 91.9684 241.182 91.2665H242.2C242.2 93.3824 241.223 93.8504 240.409 93.8504C239.015 93.8504 238.435 92.3245 237.459 92.3245C236.833 92.3245 236.599 93.0467 236.599 93.7639L235.607 93.7792Z" fill="white"/>
<path d="M246.244 101.385C246.244 97.0562 247.938 95.3828 251.265 95.3828C254.592 95.3828 256.281 97.0104 256.281 101.385C256.281 105.759 254.613 107.407 251.265 107.407C247.918 107.407 246.244 105.759 246.244 101.385ZM254.77 101.385C254.77 97.6869 253.656 96.5679 251.286 96.5679C248.915 96.5679 247.775 97.6157 247.775 101.385C247.775 105.154 248.869 106.222 251.265 106.222C253.661 106.222 254.77 105.154 254.77 101.385Z" fill="white"/>
<path d="M272.234 103.276C272.234 105.906 270.769 107.391 267.559 107.391C264.471 107.391 262.681 106.16 262.681 101.395C262.681 97.2288 264.146 95.3672 267.513 95.3672C270.881 95.3672 272.234 96.8066 272.234 100.693V101.506H264.207C264.207 105.464 265.509 106.186 267.692 106.186C269.874 106.186 270.922 105.23 270.922 103.276H272.234ZM264.192 100.576H270.805C270.805 97.417 269.971 96.5523 267.503 96.5523C265.184 96.5523 264.207 97.6713 264.181 100.576" fill="white"/>
<path d="M289.933 99.2254C289.933 97.3434 289.164 96.6822 287.516 96.6822C285.029 96.6822 284.306 98.7524 284.306 101.733V106.011H285.888V107.15H281.264V106.011H282.846V99.2254C282.846 97.3434 282.078 96.6822 280.425 96.6822C277.942 96.6822 277.22 98.7524 277.22 101.733V106.011H278.776V107.15H274.106V106.011H275.755V96.7534H274.198V95.6395H277.103V97.0993C277.103 97.4045 277.103 97.7758 277.103 98.1929C277.662 96.4737 278.868 95.3801 280.888 95.3801C282.678 95.3801 283.94 96.0566 284.235 98.0097C284.475 97.2159 284.974 96.5255 285.653 96.0488C286.332 95.5721 287.151 95.3366 287.979 95.3801C290.07 95.3801 291.418 96.2651 291.418 99.0779V106.011H293.02V107.15H288.396V106.011H289.953L289.933 99.2254Z" fill="white"/>
<path d="M192.875 124.508C192.875 122.621 192.107 121.965 190.458 121.965C187.971 121.965 187.253 124.035 187.253 127.016V131.294H188.805V132.408H184.176V131.268H185.758V124.503C185.758 122.616 184.99 121.96 183.341 121.96C180.854 121.96 180.131 124.03 180.131 127.011V131.289H181.688V132.408H177.018V131.268H178.666V122.011H177.11V120.897H180.014V122.362C180.014 122.662 180.014 123.038 180.014 123.456C180.569 121.731 181.78 120.638 183.799 120.638C185.59 120.638 186.852 121.314 187.147 123.267C187.387 122.474 187.887 121.784 188.566 121.308C189.244 120.831 190.063 120.595 190.891 120.638C192.982 120.638 194.33 121.523 194.33 124.341V131.268H195.927V132.408H191.303V131.268H192.875V124.508Z" fill="white"/>
<path d="M197.834 126.643C197.834 122.319 199.534 120.641 202.855 120.641C206.177 120.641 207.877 122.268 207.877 126.643C207.877 131.017 206.203 132.67 202.855 132.67C199.508 132.67 197.834 131.017 197.834 126.643ZM206.366 126.643C206.366 122.945 205.252 121.831 202.881 121.831C200.51 121.831 199.371 122.874 199.371 126.643C199.371 130.412 200.465 131.485 202.855 131.485C205.246 131.485 206.366 130.412 206.366 126.643Z" fill="white"/>
<path d="M213.635 120.898V122.017H211.987L214.937 131.158H215.217L218.193 122.017H216.565V120.898H220.701V122.017H219.658L216.24 132.414H213.915L210.501 122.017H209.265V120.898H213.635Z" fill="white"/>
<path d="M221.729 132.41V131.271H223.398V122.014H221.821V120.9H224.842V131.271H226.491V132.41H221.729ZM225.025 118.758H223.143V117.039H225.025V118.758Z" fill="white"/>
<path d="M243.807 124.508C243.807 122.621 243.039 121.965 241.386 121.965C238.898 121.965 238.181 124.035 238.181 127.016V131.294H239.763V132.408H235.134V131.268H236.716V124.503C236.716 122.616 235.948 121.96 234.299 121.96C231.812 121.96 231.095 124.03 231.095 127.011V131.289H232.651V132.408H227.976V131.268H229.624V122.011H228.068V120.897H230.972V122.362C230.972 122.662 230.972 123.038 230.972 123.456C231.532 121.731 232.738 120.638 234.762 120.638C236.548 120.638 237.815 121.314 238.11 123.267C238.35 122.474 238.848 121.785 239.526 121.308C240.203 120.831 241.021 120.595 241.849 120.638C243.94 120.638 245.288 121.523 245.288 124.341V131.268H246.895V132.408H242.271V131.268H243.828L243.807 124.508Z" fill="white"/>
<path d="M258.326 128.553C258.326 131.182 256.866 132.673 253.656 132.673C250.563 132.673 248.777 131.437 248.777 126.671C248.777 122.505 250.242 120.648 253.61 120.648C256.978 120.648 258.326 122.088 258.326 125.974V126.813H250.288C250.288 130.765 251.585 131.487 253.773 131.487C255.96 131.487 257.003 130.536 257.003 128.578L258.326 128.553ZM250.288 125.857H256.902C256.902 122.693 256.062 121.834 253.6 121.834C251.275 121.834 250.298 122.947 250.278 125.857" fill="white"/>
<path d="M265.255 132.407H260.534V131.268H262.187V122.01H260.63V120.896H263.535V122.422C263.535 122.773 263.535 123.236 263.535 123.724C263.77 122.805 264.32 121.997 265.088 121.44C265.856 120.882 266.795 120.611 267.742 120.673C270.021 120.673 271.435 121.553 271.435 124.37V131.298H273.089V132.407H268.348V131.268H269.975V124.574C269.975 122.667 269.207 121.944 267.3 121.944C264.649 121.944 263.672 123.979 263.672 127.031V131.262H265.28L265.255 132.407Z" fill="white"/>
<path d="M275.851 120.899V117.781H277.321V120.899H280.374V122.013H277.321V130.019C277.321 131.062 277.581 131.459 278.741 131.459C279.356 131.454 279.97 131.4 280.577 131.296V132.435C279.872 132.563 279.157 132.632 278.441 132.644C276.441 132.644 275.861 132.018 275.861 130.039V122.013H274.208V120.899H275.851Z" fill="white"/>
<path d="M282.846 126.643C282.846 122.319 284.54 120.641 287.867 120.641C291.194 120.641 292.883 122.268 292.883 126.643C292.883 131.017 291.209 132.67 287.867 132.67C284.525 132.67 282.846 131.017 282.846 126.643ZM291.372 126.643C291.372 122.945 290.258 121.831 287.888 121.831C285.517 121.831 284.377 122.874 284.377 126.643C284.377 130.412 285.471 131.485 287.867 131.485C290.187 131.485 291.372 130.412 291.372 126.643Z" fill="white"/>
<path d="M71.5761 9.46818C72.3734 9.24735 73.0996 8.82328 73.6837 8.23749C74.2678 7.6517 74.6898 6.92426 74.9082 6.12644C75.1944 5.10042 75.1324 4.0085 74.7318 3.02147C74.3313 2.03445 73.6149 1.20801 72.6946 0.671432C71.7743 0.134856 70.702 -0.0815879 69.6456 0.0559624C68.5892 0.193513 67.6082 0.677296 66.856 1.43163C66.1039 2.18597 65.623 3.16831 65.4887 4.22498C65.3543 5.28164 65.5741 6.35304 66.1135 7.27155C66.653 8.19006 67.4817 8.90387 68.4701 9.30133C69.4585 9.69879 70.5508 9.75746 71.5761 9.46818Z" fill="white"/>
<path d="M53.5323 36.5794C56.4287 36.5865 59.2621 35.7341 61.6737 34.1302C64.0853 32.5264 65.9667 30.2431 67.0798 27.5695C68.1929 24.8959 68.4875 21.9522 67.9264 19.1111C67.3653 16.27 65.9737 13.6593 63.9277 11.6094C61.8818 9.55948 59.2736 8.16263 56.4332 7.59568C53.5928 7.02872 50.6481 7.31716 47.9718 8.42446C45.2954 9.53176 43.0079 11.4081 41.3987 13.816C39.7896 16.2239 38.9311 19.0551 38.9321 21.951C38.9301 23.8701 39.3062 25.7707 40.0388 27.5444C40.7715 29.3181 41.8463 30.9302 43.2021 32.2886C44.5578 33.6469 46.1679 34.725 47.9404 35.4612C49.7128 36.1975 51.613 36.5774 53.5323 36.5794ZM53.5323 13.7416C55.1573 13.7366 56.7472 14.2138 58.1008 15.1128C59.4544 16.0118 60.5107 17.2922 61.1361 18.7918C61.7614 20.2914 61.9277 21.9428 61.6137 23.537C61.2998 25.1311 60.5198 26.5963 59.3725 27.7469C58.2253 28.8976 56.7623 29.682 55.1689 30.0008C53.5755 30.3196 51.9233 30.1585 50.4215 29.5379C48.9197 28.9174 47.6359 27.8652 46.7326 26.5146C45.8292 25.164 45.3471 23.5758 45.347 21.951C45.3484 19.7777 46.2111 17.6935 47.7462 16.1548C49.2813 14.6161 51.3637 13.7484 53.5374 13.7416" fill="white"/>
<path d="M64.3985 40.5H49.6152C46.7751 40.5 44.0514 41.628 42.0432 43.636C40.035 45.6439 38.9067 48.3672 38.9067 51.2068C38.9067 54.0464 40.035 56.7698 42.0432 58.7777C44.0514 60.7856 46.7751 61.9136 49.6152 61.9136H64.3985C67.2386 61.9136 69.9623 60.7856 71.9705 58.7777C73.9787 56.7698 75.107 54.0464 75.107 51.2068C75.107 48.3672 73.9787 45.6439 71.9705 43.636C69.9623 41.628 67.2386 40.5 64.3985 40.5ZM64.3985 55.4844H49.6152C48.5054 55.4462 47.4538 54.9785 46.6822 54.18C45.9107 53.3815 45.4794 52.3146 45.4794 51.2043C45.4794 50.094 45.9107 49.0271 46.6822 48.2286C47.4538 47.43 48.5054 46.9623 49.6152 46.9241H64.3985C65.5083 46.9623 66.5599 47.43 67.3315 48.2286C68.103 49.0271 68.5343 50.094 68.5343 51.2043C68.5343 52.3146 68.103 53.3815 67.3315 54.18C66.5599 54.9785 65.5083 55.4462 64.3985 55.4844Z" fill="white"/>
</g>
<defs>
<clipPath id="clip0_60_75">
<rect width="293" height="159" fill="white"/>
</clipPath>
</defs>
</svg>